<svg id="sup-hanabi" xmlns="http://www.w3.org/2000/svg" xmlns:xlink="http://www.w3.org/1999/xlink" width="129.18617" height="87.21277" viewBox="0 0 129.18617 87.21277">
  <defs>
    <linearGradient id="未命名漸層_2" data-name="未命名漸層 2" x1="26.00102" y1="13.1952" x2="66.07862" y2="76.36793" gradientTransform="matrix(1, 0, 0, -1, 0, 91.91489)" gradientUnits="userSpaceOnUse">
      <stop offset="0" stop-color="#e7b85e" stop-opacity="0"/>
      <stop offset="1" stop-color="#e7b85e"/>
    </linearGradient>
  </defs>
  <title>sup-hanabi</title>
  <rect id="frame" width="129.18617" height="87.21277" style="fill: none"/>
  <g id="ship">
    <path d="M100.71417,67.21374c4.4833-5.2502-4.6846-20.4388-20.4771-33.9247s-32.22941-20.1623-36.71275-14.9121,4.68456,20.4388,20.47715,33.9247S96.23077,72.46394,100.71417,67.21374Z" style="fill: #b87757"/>
    <path d="M75.25117,32.578c10.8988,9.2854,12.7978,13.8541,8.4073,18.9623-5.849,6.8438-10.1313,5.2618-21.1289-4.0087s-16.90234-20.3165-13.36718-24.3862S64.33767,23.19384,75.25117,32.578Z" style="fill: #bed3e5;stroke: #bed3e5;stroke-miterlimit: 10;stroke-width: 0.2159000039100647px"/>
    <path d="M47.89721,30.21184l8.24706-9.7317c.1681-.2274.5093.0247.4401.2373L51.527,35.53214c-.0692.2126.272.4647.4401.2373l10.3236-12.0658c.1681-.2274-.0742-.4944-.2571-.3659l-13.87922,7.24C47.97141,30.70634,47.7291,30.43934,47.89721,30.21184Z" style="fill: none;stroke: #002a50;stroke-miterlimit: 10;stroke-width: 0.20059999823570251px"/>
    <path d="M56.71337,20.90114a.30418.30418,0,0,1-.3956.0594l-.4697-.4351a.28287.28287,0,1,1,.3362-.455l.4698.4351A.30419.30419,0,0,1,56.71337,20.90114Z" style="fill: #002a50"/>
    <path d="M48.367,30.64414a.30427.30427,0,0,1-.39557.0594l-.56867-.4203a.28283.28283,0,1,1,.3362-.4549l.46978.4351A.24735.24735,0,0,1,48.367,30.64414Z" style="fill: #002a50"/>
    <path d="M51.79937,35.99494a.30419.30419,0,0,1-.3956.0593l-.4698-.4351a.28283.28283,0,1,1,.3362-.4549l.4698.4351A.30429.30429,0,0,1,51.79937,35.99494Z" style="fill: #002a50"/>
    <path d="M62.55837,23.46054a.30429.30429,0,0,1-.3956.0594l-.5686-.4203a.28283.28283,0,1,1,.3362-.4549l.4697.4351A.24731.24731,0,0,1,62.55837,23.46054Z" style="fill: #002a50"/>
    <path d="M79.92537,57.66114a.3041.3041,0,0,1,.3956-.0594l.4698.4351a.28283.28283,0,0,1-.3362.4549l-.4698-.4351C79.87107,57.97264,79.85617,57.87374,79.92537,57.66114Z" style="fill: #002a50"/>
    <path d="M88.26917,47.915a.30406.30406,0,0,1,.3955-.0594l.4698.4351a.28283.28283,0,1,1-.3362.4549l-.4698-.4351A.304.304,0,0,1,88.26917,47.915Z" style="fill: #002a50"/>
    <path d="M84.83947,42.56344a.30429.30429,0,0,1,.3956-.0594l.4697.4351a.28287.28287,0,1,1-.3362.455l-.4697-.4351A.3041.3041,0,0,1,84.83947,42.56344Z" style="fill: #002a50"/>
    <path d="M74.08167,55.09864a.304.304,0,0,1,.3955-.0594l.4698.4351a.28283.28283,0,1,1-.3362.4549l-.4549-.3362A.44613.44613,0,0,1,74.08167,55.09864Z" style="fill: #002a50"/>
    <path d="M100.78287,67.27094c2.3139-2.7742.9884-8.238-3.131-14.7993-5.3257-3.1444-8.6583-2.442-12.7967,2.3249-3.1,3.6-3.1196,6.8388.9453,11.6892C92.921,69.46194,98.45417,69.94614,100.78287,67.27094Z" style="fill: #d7a793"/>
    <path d="M88.73987,48.34944l-8.247,9.7318c-.1681.2274-.5093-.0247-.4401-.2374l5.0573-14.8146c.0692-.2126-.272-.4648-.4401-.2373l-10.3236,12.0658c-.1681.2274.0742.4944.2571.3658l13.7804-7.2251C88.66567,47.855,88.908,48.122,88.73987,48.34944Z" style="fill: none;stroke: #002a50;stroke-miterlimit: 10;stroke-width: 0.20059999823570251px"/>
    <path d="M83.44887,58.24314a.30417.30417,0,0,1,.3955-.0594l.4698.4351a.28287.28287,0,0,1-.3362.455l-.4698-.4351C83.40927,58.65354,83.37967,58.45574,83.44887,58.24314Z" style="fill: #002a50"/>
    <path d="M89.04647,51.74314a.30432.30432,0,0,1,.3956-.0594l.4698.4351a.28287.28287,0,0,1-.3362.455l-.4698-.4351A.30421.30421,0,0,1,89.04647,51.74314Z" style="fill: #002a50"/>
    <path d="M88.57227,48.57724l-4.7116,9.7067c-.0692.2127.1434.2819.2275.1681l5.2458-6.1466c.0841-.1137-.0445-.2967-.2274-.1681l-8.544,5.7315" style="fill: none;stroke: #002a50;stroke-miterlimit: 10;stroke-width: 0.2159000039100647px"/>
  </g>
  <g id="paddle">
    <path d="M89.74707,31.59294l-36.4135,17.9174a1.08123,1.08123,0,0,1-1.4895-.5657,1.17514,1.17514,0,0,1,.6116-1.5325l36.4964-17.8658a1.08123,1.08123,0,0,1,1.4896.5656A1.27943,1.27943,0,0,1,89.74707,31.59294Z" style="fill: #9dbbce"/>
    <path d="M103.634,31.19574l-9.4919,4.6562a6.20387,6.20387,0,0,1-8.5169-3.0069,6.73453,6.73453,0,0,1,3.2733-8.7537l9.4919-4.6561a3.2108,3.2108,0,0,1,4.2854,1.4602l2.6365,5.9493A3.38463,3.38463,0,0,1,103.634,31.19574Z" style="fill: #9dbbce"/>
    <path d="M54.08087,48.81784l-.7938.3463a1.08427,1.08427,0,0,1-1.4936-.5672,1.17824,1.17824,0,0,1,.6133-1.5366l.8477-.4326a1.08415,1.08415,0,0,1,1.4936.5671A1.42215,1.42215,0,0,1,54.08087,48.81784Z" style="fill: #b5c6d2"/>
    <path d="M84.15767,32.19444l-1.9309.931.9383,2.0544,1.9309-.931Z" style="fill: #b5c6d2"/>
  </g>
  <g id="hanabi">
    <path d="M39.72884,40.35849l2.1,5.2a.22477.22477,0,0,0,.4-.2l-2.1-5.2C40.02885,39.95849,39.62885,40.15849,39.72884,40.35849Z" style="fill: #d2a553"/>
    <path d="M32.22884,21.86013l6.2,15.3a.22478.22478,0,0,0,.4-.2l-6.2-15.3A.22478.22478,0,0,0,32.22884,21.86013Z" style="fill: #d2a553"/>
    <path d="M33.72935,46.46029l5.1,2.2c.2.1.4-.3.2-.4l-5.1-2.2C33.72935,45.96029,33.52935,46.36029,33.72935,46.46029Z" style="fill: #d2a553"/>
    <path d="M15.33094,38.55979l15.2,6.5c.2.1.4-.3.2-.4l-15.2-6.4C15.33094,38.15979,15.13094,38.45979,15.33094,38.55979Z" style="fill: #d2a553"/>
    <path d="M33.82785,54.86109l5.2-2.1a.22478.22478,0,0,0-.2-.4l-5.2,2.1C33.42785,54.56109,33.62785,54.96109,33.82785,54.86109Z" style="fill: #d2a553"/>
    <path d="M15.32949,62.35949l15.3-6.2a.22478.22478,0,0,0-.2-.4l-15.3,6.2A.22478.22478,0,0,0,15.32949,62.35949Z" style="fill: #d2a553"/>
    <path d="M39.92964,60.86079l2.2-5.1c.1-.2-.3-.4-.4-.2l-2.2,5.1C39.42964,60.86079,39.82965,61.06079,39.92964,60.86079Z" style="fill: #d2a553"/>
    <path d="M32.031,79.26159l6.5-15.2c.1-.2-.3-.4-.4-.2l-6.5,15.2C31.631,79.26159,31.931,79.46159,32.031,79.26159Z" style="fill: #d2a553"/>
    <path d="M48.33045,60.75859l-2.1-5.2a.22478.22478,0,0,0-.4.2l2.1,5.2C48.03044,61.15859,48.43045,60.95859,48.33045,60.75859Z" style="fill: #d2a553"/>
    <path d="M55.82885,79.257l-6.2-15.3a.22477.22477,0,0,0-.4.2l6.2,15.3A.22478.22478,0,0,0,55.82885,79.257Z" style="fill: #d2a553"/>
    <path d="M54.32854,54.66029l-5.2-2.1c-.2-.1-.4.3-.2.4l5.1,2.2C54.32854,55.16029,54.52854,54.76029,54.32854,54.66029Z" style="fill: #d2a553"/>
    <path d="M72.72705,62.56029l-15.2-6.5c-.2-.1-.4.3-.2.4l15.2,6.5C72.72705,63.06029,72.927,62.66029,72.72705,62.56029Z" style="fill: #d2a553"/>
    <path d="M54.228,46.25949l-5.2,2.1a.22478.22478,0,0,0,.2.4l5.2-2.1C54.62794,46.55949,54.428,46.15949,54.228,46.25949Z" style="fill: #d2a553"/>
    <path d="M72.72634,38.75949l-15.3,6.2a.22478.22478,0,0,0,.2.4l15.3-6.2A.22478.22478,0,0,0,72.72634,38.75949Z" style="fill: #d2a553"/>
    <path d="M48.12965,40.26159l-2.1,5.2c-.1.2.3.4.4.2l2.2-5.1C48.62965,40.26159,48.22964,40.06159,48.12965,40.26159Z" style="fill: #d2a553"/>
    <path d="M56.02965,21.86158l-6.5,15.2c-.1.2.3.4.4.2l6.5-15.2C56.52965,21.86158,56.12965,21.66158,56.02965,21.86158Z" style="fill: #d2a553"/>
    <path d="M44.03014,27.56155l-.2,18.3a.20139.20139,0,1,0,.4,0l.2-18.3C44.43015,27.36155,44.03014,27.36155,44.03014,27.56155Z" style="fill: #d2a553"/>
    <path d="M27.82965,34.26089l12.9,13.1a.21213.21213,0,0,0,.3-.3l-12.9-13C27.92965,33.86089,27.62965,34.16089,27.82965,34.26089Z" style="fill: #d2a553"/>
    <path d="M21.03091,50.56159l18.3.2a.20139.20139,0,1,0,0-.4l-18.3-.2C20.83091,50.16159,20.83091,50.56159,21.03091,50.56159Z" style="fill: #d2a553"/>
    <path d="M27.73025,66.76349l13.1-12.9a.21213.21213,0,0,0-.3-.3l-13,13C27.33025,66.66349,27.63025,66.96349,27.73025,66.76349Z" style="fill: #d2a553"/>
    <path d="M44.031,73.56159l.2-18.3a.20138.20138,0,1,0-.4,0l-.2,18.3C43.631,73.76159,44.031,73.76159,44.031,73.56159Z" style="fill: #d2a553"/>
    <path d="M60.23045,66.86269l-12.8-13.1a.21213.21213,0,0,0-.3.3l12.9,13C60.13045,67.26269,60.43045,66.96269,60.23045,66.86269Z" style="fill: #d2a553"/>
    <path d="M67.03094,50.56079l-18.3-.2a.20139.20139,0,1,0,0,.4l18.3.2C67.23094,50.96079,67.23094,50.56079,67.03094,50.56079Z" style="fill: #d2a553"/>
    <path d="M60.33205,34.36169l-13.1,12.8a.21213.21213,0,0,0,.3.3l13.1-12.9C60.73205,34.46169,60.432,34.16169,60.33205,34.36169Z" style="fill: #d2a553"/>
    <path d="M43.92935,74.36a23.9,23.9,0,1,0-23.9-23.9A23.9,23.9,0,0,0,43.92935,74.36Z" style="fill: url(#未命名漸層_2)"/>
  </g>
</svg>
