<svg id="sup-top" data-name="sup-top" xmlns="http://www.w3.org/2000/svg" width="100" height="81" viewBox="0 0 100 81">
  <title>sup</title>
  <rect id="frame" width="100" height="81" style="fill: none"/>
  <g id="ship">
    <path d="M57.1046,50.2453C76.9038,33.9699,88.5476,15.46487,83.1118,8.91307s-25.8927,1.33071-45.6919,17.606S5.97688,61.2996,11.41266,67.8514,37.3054,66.5207,57.1046,50.2453Z" style="fill: #d3a674"/>
    <path d="M59.0875,44.2844c-13.7249,11.2-19.5363,12.5539-24.8532,6.1539-7.0479-8.4923-4.3277-13.4154,9.3972-24.7385S71.8232,9.45366,76.1508,14.62289,72.6887,32.9614,59.0875,44.2844Z" style="fill: #5186bc"/>
    <path d="M67.7399,11.54727,77.7553,23.6088c.2473.2462-.1236.6154-.3709.4923L60.4447,14.87035c-.2473-.12308-.6183.24615-.371.49231L72.5621,30.5011c.2473.2462.6183,0,.4946-.2461L67.2453,11.79343C67.1217,11.54727,67.4926,11.30112,67.7399,11.54727Z" style="fill: none;stroke: #002a50;stroke-miterlimit: 10;stroke-width: 0.20059999823570251px"/>
    <path d="M77.2685,24.2254a.37316.37316,0,0,1,0-.4923l.6183-.4924a.37747.37747,0,0,1,.4945,0,.37306.37306,0,0,1,0,.4924l-.6182.4923A.3776.3776,0,0,1,77.2685,24.2254Z" style="fill: #002a50"/>
    <path d="M67.124,12.03786a.37294.37294,0,0,1,0-.49231l.6182-.4923a.37742.37742,0,0,1,.4946,0,.37293.37293,0,0,1,0,.4923l-.6182.49231A.37742.37742,0,0,1,67.124,12.03786Z" style="fill: #002a50"/>
    <path d="M59.831,14.99489a.37317.37317,0,0,1,0-.49231l.6183-.4923a.37728.37728,0,0,1,.4945,0,.37293.37293,0,0,1,0,.4923l-.6182.61539A.30653.30653,0,0,1,59.831,14.99489Z" style="fill: #002a50"/>
    <path d="M72.8154,30.7449a.37293.37293,0,0,1,0-.4923l.6182-.4923a.37737.37737,0,0,1,.4946,0,.37293.37293,0,0,1,0,.4923l-.6182.4923A.37737.37737,0,0,1,72.8154,30.7449Z" style="fill: #002a50"/>
    <path d="M27.4321,44.6534a.37293.37293,0,0,1,0,.4923l-.6182.4923a.37737.37737,0,0,1-.4946,0,.37316.37316,0,0,1,0-.4923l.6182-.4923A.25793.25793,0,0,1,27.4321,44.6534Z" style="fill: #002a50"/>
    <path d="M37.5767,56.837a.37316.37316,0,0,1,0,.4923l-.6183.4923a.37737.37737,0,0,1-.4946,0,.37316.37316,0,0,1,0-.4923l.6183-.4923A.25793.25793,0,0,1,37.5767,56.837Z" style="fill: #002a50"/>
    <path d="M44.8696,53.7593a.37293.37293,0,0,1,0,.4923l-.6182.4923a.37737.37737,0,0,1-.4946,0,.37316.37316,0,0,1,0-.4923l.6182-.4923C44.4987,53.5132,44.746,53.6362,44.8696,53.7593Z" style="fill: #002a50"/>
    <path d="M31.7603,38.0103a.37316.37316,0,0,1,0,.4923l-.6183.4923a.37737.37737,0,0,1-.4946,0,.37316.37316,0,0,1,0-.4923l.6183-.4923A.37737.37737,0,0,1,31.7603,38.0103Z" style="fill: #002a50"/>
    <path d="M11.36108,67.7935c2.8439,3.4462,9.76812,2.9539,18.67082-.6153,5.0695-5.7847,4.8222-9.9693,0-16-3.7095-4.4308-7.6662-5.1693-14.4668-1.3539C10.24825,57.7012,8.51719,64.3474,11.36108,67.7935Z" style="fill: #d6a85c"/>
    <path d="M36.9564,57.2062,26.9409,45.1446c-.2473-.2461.1237-.6154.371-.4923l16.9397,9.2308c.2473.1231.6182-.2462.3709-.4923L32.0105,38.3754c-.2473-.2462-.6183,0-.4946.2462L37.451,56.96C37.5746,57.2062,37.2037,57.4523,36.9564,57.2062Z" style="fill: none;stroke: #002a50;stroke-miterlimit: 10;stroke-width: 0.20059999823570251px"/>
    <path d="M25.9517,48.7134a.37316.37316,0,0,1,0,.4923l-.6183.4923a.37737.37737,0,0,1-.4946,0,.37316.37316,0,0,1,0-.4923l.6183-.4923A.37737.37737,0,0,1,25.9517,48.7134Z" style="fill: #002a50"/>
    <path d="M32.7524,56.8384a.37293.37293,0,0,1,0,.4923l-.6182.4923a.37737.37737,0,0,1-.4946,0,.37316.37316,0,0,1,0-.4923l.6182-.4923A.37737.37737,0,0,1,32.7524,56.8384Z" style="fill: #002a50"/>
    <path d="M36.7094,56.9599,25.9521,49.2061c-.2473-.1231-.371.123-.2473.2461l6.306,7.6308c.1236.1231.3709,0,.2473-.2462L27.0649,45.1445" style="fill: none;stroke: #002a50;stroke-miterlimit: 10;stroke-width: 0.2159000039100647px"/>
  </g>
  <g id="paddle">
    <path d="M67.8829,48.24,26.7083,20.1785a1.40745,1.40745,0,0,1-.371-1.9693,1.42232,1.42232,0,0,1,1.9784-.3692L69.4903,45.9016a1.40734,1.40734,0,0,1,.371,1.9692A1.42221,1.42221,0,0,1,67.8829,48.24Z" style="fill: #426fa6"/>
    <path d="M77.279,62.6408,66.5216,55.3793a7.9243,7.9243,0,0,1-2.102-11.077A8.00693,8.00693,0,0,1,75.5479,42.21l10.7573,7.2616a3.83719,3.83719,0,0,1,.9892,5.5384l-4.5749,6.6462A3.9211,3.9211,0,0,1,77.279,62.6408Z" style="fill: #9dbbce"/>
    <path d="M27.5738,20.7939l-.8655-.6154a1.40745,1.40745,0,0,1-.371-1.9693,1.42232,1.42232,0,0,1,1.9784-.3692l.8655.6154a1.40735,1.40735,0,0,1,.371,1.9692A1.32541,1.32541,0,0,1,27.5738,20.7939Z" style="fill: #b5c6d2"/>
    <path d="M64.0932,42.3293l-2.144-1.4582-1.6045,2.3374,2.144,1.4582Z" style="fill: #b5c6d2"/>
  </g>
</svg>
