<svg id="turtle" xmlns="http://www.w3.org/2000/svg" width="51.24464" height="59.06477" viewBox="0 0 51.24464 59.06477">
  <title>turtle</title>
  <g id="back-leg">
    <path d="M46.2396,42.5674a4.49842,4.49842,0,0,0-7.0734.6162c-1.2634,2.1713-1.0947,5.428-.3763,7.8017.6301,2.2521,4.0558,10.1102,7.4478,8.595,2.8292-1.2802-.9344-4.561-1.3595-6.0273a6.36089,6.36089,0,0,1,.9933-6.1977C47.1329,45.9375,47.7732,44.4225,46.2396,42.5674Z" transform="translate(-7.11297 -0.70802)" style="fill: #9bb554"/>
    <path d="M41.4014,51.9409a1.14793,1.14793,0,0,1,.1314.5584.3156.3156,0,0,1-.562.2348,2.26554,2.26554,0,0,1-.323-.696c-.1616-.348.3853-.4775.5469-.1295a2.36979,2.36979,0,0,0,.2347.5746c-.2217.0728-.3401.1619-.5619.2347a1.14681,1.14681,0,0,1-.1314-.5584A.35363.35363,0,0,1,41.4014,51.9409Z" transform="translate(-7.11297 -0.70802)" style="fill: #738841"/>
    <path d="M40.4463,52.0126l-.0452.316c-.0151.1053-.1487.2998-.2523.2836s-.2954-.154-.2804-.2593l.0453-.3159c.0151-.1053.1488-.2998.2523-.2836C40.2846,51.6643,40.4765,51.802,40.4463,52.0126Z" transform="translate(-7.11297 -0.70802)" style="fill: #738841"/>
    <path d="M41.0155,53.18c-.0151.1053.0733.2267.0582.332.0884.1215-.0452.3158-.1637.4049s-.3103-.0486-.3986-.17c.015-.1053-.0733-.2268-.0583-.332-.0883-.1215.0452-.3158.1637-.4049C40.8388,52.9371,40.9422,52.9533,41.0155,53.18Z" transform="translate(-7.11297 -0.70802)" style="fill: #738841"/>
  </g>
  <g id="front-leg">
    <path d="M27.6271,31.5107a5.27609,5.27609,0,0,0-8.4797.827c-1.5459,2.6656-1.3642,6.5705-.5141,9.5032.7768,2.7058,4.9081,12.2896,8.9968,10.3449,3.5107-1.6044-1.1244-5.4522-1.7113-7.2669a7.93956,7.93956,0,0,1,1.1894-7.5669C28.6521,35.4399,29.5447,33.6413,27.6271,31.5107Z" transform="translate(-7.11297 -0.70802)" style="fill: #9bb554"/>
    <path d="M20.6818,33.0042a1.94186,1.94186,0,0,1,.4115.8175.577.577,0,0,1-.3855.4777.46147.46147,0,0,1-.5169-.0809c-.1917-.1376-.3684-.3805-.2349-.5748a.80862.80862,0,0,1,.2821-.4938.37662.37662,0,0,1,.3252-.0567c.0884.1214.2952.1538.265.3643l-.015.1052h0a.3273.3273,0,0,1-.0603.421.31473.31473,0,0,1-.4136-.0647.39888.39888,0,0,1-.0581-.332s0,.0001.015-.1052c-.015.1053-.015.1052-.015.1052.1034.0162.2218-.0728.3252-.0566a.36651.36651,0,0,0-.1335.1943h0l-.0151.1052h0l-.0151.1052h0c.1034.0162-.1034-.0161,0,0h0c.1034.0162-.1034-.0161,0,0h0c.0151-.1052-.015.1053,0,0s-.015.1053,0,0h0c.0151-.1052-.015.1053,0,0l.0151-.1052h0l-.0883-.1214-.0883-.1215a.32325.32325,0,0,1-.0432-.4371C20.3867,32.8504,20.5935,32.8828,20.6818,33.0042Z" transform="translate(-7.11297 -0.70802)" style="fill: #738841"/>
    <path d="M21.2722,35.474h0q.2874.2064.2649.3642c-.0301.2105-.267.3885-.4587.251-.1033-.0162-.1916-.1376-.2799-.259s-.1917-.1376-.1616-.348a.39015.39015,0,0,1,.1486-.2995c.1334-.1943.4435-.1457.6352-.0081.1034.0161.1766.2427.1616.348s-.2369.178-.4436.1457h0l.1033.0162h0a.37867.37867,0,0,0-.0732-.2267c-.1034-.0161,0,0,.1034.0162h0a.10456.10456,0,0,0,.0883.1214,1.42062,1.42062,0,0,1-.4587.251h0a.10462.10462,0,0,1-.0883-.1214c-.0883-.1214-.1766-.2428-.1615-.3481s.1485-.2994.2519-.2832C21.1106,35.126,21.3023,35.2636,21.2722,35.474Z" transform="translate(-7.11297 -0.70802)" style="fill: #738841"/>
    <path d="M19.9814,34.9462c-.015.1053.0583.3321-.0603.4212-.0151.1053-.1186.0892-.1336.1945a.20157.20157,0,0,1-.2955-.1539.399.399,0,0,1-.0582-.3322c.015-.1053.1487-.2997.2522-.2835l.207.0324c.1035.0162.0884.1215.0734.2268s.015-.1053,0,0a.10477.10477,0,0,0-.0885-.1215l-.1035-.0162a.10157.10157,0,0,0-.1186.0891c-.1035-.0162-.1185.0891-.1336.1944h0l.0302-.2106c.015-.1053.1487-.2997.2522-.2835C19.8197,34.5979,20.0116,34.7356,19.9814,34.9462Z" transform="translate(-7.11297 -0.70802)" style="fill: #738841"/>
  </g>
  <g id="other">
    <path d="M54.1362,49.89a4.80491,4.80491,0,0,0,4.2214-1.4854c-.4298.791-4.4626-1.985-5.1247-2.5176-.8535-.6698-1.3223-1.8158-2.5324-1.4687a3.22682,3.22682,0,0,0-1.8914,1.4206c-.563.9847-.1954,1.3639.6731,1.9288A9.15783,9.15783,0,0,0,54.1362,49.89Z" transform="translate(-7.11297 -0.70802)" style="fill: #9bb554"/>
    <path d="M19.8381,11.4222c.6589-3.12551.7835-5.47364-1.6924-8.12116C15.0212.01391,5.9785-1.07849,7.23123,5.6824,7.72711,8.12766,9.703,9.836,11.0283,11.6577a23.89687,23.89687,0,0,1,2.5109,6.0968c.8061,2.4939.9185,4.6638,2.8643,6.5827,1.2088,1.1577,2.993,2.7284,4.7682,2.1453,4.3196-1.3687-1.328-6.2346-1.9725-8.3802C18.4512,15.9404,19.33,13.495,19.8381,11.4222Z" transform="translate(-7.11297 -0.70802)" style="fill: #9bb554"/>
    <path d="M54.0978,39.6789c1.7187,2.739,3.2009,5.6559-.0656,7.8298-3.5181,2.4566-8.368.946-11.7275-.6536-8.2223-3.7567-16.9609-7.5942-21.644-16.167-1.7618-3.1754-3.2119-7.0539-2.9802-10.8839.2468-3.9352,3.045-2.1011,5.7011-2.2226,1.1656-.0324,2.3011.1453,3.4668.1129a11.97561,11.97561,0,0,1,3.8797.1775c3.981.945,6.9686,3.6679,10.0594,6.4068,5.1364,4.6701,12.632,9.8166,13.9256,16.9999" transform="translate(-7.11297 -0.70802)" style="fill: #738841"/>
    <path d="M32.0967,37.8284c4.3438,3.5809,9.5889,6.7656,15.1349,7.8484s8.243-3.0079,8.4337-8.0281c.0663-2.6759-.9752-4.9878-2.3265-7.3482-3.3631-6.0062-8.97-11.8263-15.6498-13.8387-5.7655-1.7619-17.8141.5431-16.2124,8.53C22.568,30.6424,27.8411,34.3687,32.0967,37.8284Z" transform="translate(-7.11297 -0.70802)" style="fill: #9bb554"/>
    <path d="M32.4026,16.7883h0a16.0209,16.0209,0,0,1,5.3247.4036,9.62619,9.62619,0,0,1,3.2821,2.8759,1.85835,1.85835,0,0,1,.3937,1.6724,2.70144,2.70144,0,0,1-1.4943,1.5918,1.65035,1.65035,0,0,1-.7828.307,4.80952,4.80952,0,0,1-.9741.1698c-.1033-.0162-.1032-.0162-.2215.0727a7.904,7.904,0,0,1-1.5785-.0322,5.62515,5.62515,0,0,1-3.1097-1.1308C32.1538,21.4743,29.8329,17.7823,32.4026,16.7883Z" transform="translate(-7.11297 -0.70802)" style="fill: #c1cc64"/>
    <path d="M41.9702,23.4259a5.5327,5.5327,0,0,0,.3485-3.173,1.31561,1.31561,0,0,1,1.0939-.2591,35.55945,35.55945,0,0,1,4.2452,3.5693,3.384,3.384,0,0,1,.4526,2.0073,3.392,3.392,0,0,1-2.4289,2.2019,3.15141,3.15141,0,0,1-3.1574-1.5701,6.60429,6.60429,0,0,1-.6593-2.0397c.0301-.2104.0603-.4209.1054-.7366Z" transform="translate(-7.11297 -0.70802)" style="fill: #c1cc64"/>
    <path d="M46.1461,44.0292a16.6695,16.6695,0,0,1-3.1683-.7099c-.5008-.1855-2.9619-.6775-3.2694-1.4763.1182-.0888.2364-.1776.3396-.1615a.10115.10115,0,0,0,.1182-.0887,10.32014,10.32014,0,0,0,3.3185-.3392,6.34107,6.34107,0,0,0,1.9193-.8797,4.48061,4.48061,0,0,0,.5829,2.5579,3.6887,3.6887,0,0,0,.8083.9844A.86535.86535,0,0,1,46.1461,44.0292Z" transform="translate(-7.11297 -0.70802)" style="fill: #c1cc64"/>
    <path d="M42.6894,40.3614l-.3098-.0485c-.738-.008-1.4028.2104-2.1408.2023a5.08779,5.08779,0,0,1-2.4486-.5981,13.96635,13.96635,0,0,1-2.0335-1.2856,2.06948,2.06948,0,0,1-.3789-1.7789c.002-.752.372-1.1241.6839-1.8276a6.62981,6.62981,0,0,1,2.3686-2.5311c1.4931-.8411,3.8876-2.0785,5.523-.9628a1.89429,1.89429,0,0,0,.3379.5903,6.11972,6.11972,0,0,0,3.2537,3.0887,6.95619,6.95619,0,0,0-1.8843,3.5743c-.1033-.0162-.2216.0727-.2517.283C45.125,40.3127,43.8556,40.329,42.6894,40.3614Z" transform="translate(-7.11297 -0.70802)" style="fill: #c1cc64"/>
    <path d="M27.3403,29.8081a10.08151,10.08151,0,0,1,2.0308-2.3721,11.3743,11.3743,0,0,1,2.6792-1.7326c.4588-.251,1.0511-.6963,1.3893-.1054.265.3643.0863.8743.1445,1.2062a8.986,8.986,0,0,0,.4958,2.4448,9.36242,9.36242,0,0,0,.7929,1.8456c.3382.591.81.9876,1.1482,1.5786.5149.8337-.2259,1.5785-.6415,2.2667a15.13458,15.13458,0,0,0-1.1585,2.1858c-.8142.5182-3.0395-1.6593-3.5112-2.0559a17.61988,17.61988,0,0,0-2.1972-1.6351c-.7519-.6557-1.6954-1.4489-1.6481-2.5175l.015-.1053A1.7975,1.7975,0,0,1,27.3403,29.8081Z" transform="translate(-7.11297 -0.70802)" style="fill: #c1cc64"/>
    <path d="M30.144,17.1102a1.06729,1.06729,0,0,1,.4567.5019,5.32735,5.32735,0,0,0,.7287,3.7729,8.21885,8.21885,0,0,0,.7951,1.0929l-.0151.1052c-.015.1053.0884.1215.1767.2429-.015.1053.0884.1214.0733.2267l.265.3643a.6407.6407,0,0,1-.002.753.20116.20116,0,0,0-.0452.3157,3.12257,3.12257,0,0,1-.7992.413,14.19464,14.19464,0,0,0-3.02,1.8948,13.31239,13.31239,0,0,0-1.6305,1.7894.10211.10211,0,0,0-.1185.0891c-.3855.4777-1.0683,1.5545-1.8202.8988a7.09028,7.09028,0,0,1-1.2217-1.8054,20.70313,20.70313,0,0,1-1.5299-2.6069c-.0884-.1214-.0582-.3319-.1466-.4534C21.9626,20.3494,25.9002,17.9526,30.144,17.1102Z" transform="translate(-7.11297 -0.70802)" style="fill: #c1cc64"/>
    <path d="M34.9843,24.3066c.4132.0647.9296.1455,1.3428.2102a6.43156,6.43156,0,0,0,2.0077-.0083l.1033.0162a4.26835,4.26835,0,0,0,1.0931-.2589c.6499-.1133,1.403-.2104,1.4612.1212a.23034.23034,0,0,0,.1765.2426,4.91065,4.91065,0,0,0,.8503,2.1755,4.04855,4.04855,0,0,0,1.2074,1.1565,2.844,2.844,0,0,1,.381,1.0271c-.1635.4044-.2237.825-.667.9706-.1183.089-.2216.0728-.2367.1779a9.51465,9.51465,0,0,0-4.7726,1.6179,2.72836,2.72836,0,0,1-.695.4287c-1.4461-.2263-2.2082-2.2805-2.6774-3.4289C34.2962,27.6388,33.7708,25.4066,34.9843,24.3066Z" transform="translate(-7.11297 -0.70802)" style="fill: #c1cc64"/>
    <path d="M48.2891,35.6241c.1185-.0891.1186-.0891.1336-.1944a5.46523,5.46523,0,0,0,3.5366-1.0612l.1185-.0891a11.35019,11.35019,0,0,0,1.2003-.9963.87258.87258,0,0,1,.7242.1134,11.28184,11.28184,0,0,1,.7139,3.8792,9.42324,9.42324,0,0,1-1.4626,5.0457,1.56332,1.56332,0,0,0-.4742.3563.39067.39067,0,0,0-.1486.2997,4.50529,4.50529,0,0,1-1.6443,1.1421,6.72988,6.72988,0,0,1-2.9268-.2428l-.1035-.0162a3.34508,3.34508,0,0,1-1.0023-1.1256,3.97376,3.97376,0,0,1-.3755-3.2881A6.04942,6.04942,0,0,1,48.2891,35.6241Z" transform="translate(-7.11297 -0.70802)" style="fill: #c1cc64"/>
    <path d="M44.6404,29.6551c.0452-.3156.1205-.8415.5489-.882.1033.0162.1183-.089.2217-.0728s.2217-.0728.325-.0567a4.24207,4.24207,0,0,0,2.6777-1.7317l.015-.1052c.2669-.3883.6371-.7606,1.227-.4532l.2066.0324a10.125,10.125,0,0,1,.8828,1.2136c.5296.7281,1.0593,1.4563,1.4856,2.1683a2.25769,2.25769,0,0,1,.3039,2.3059l-.0452.3155a3.2905,3.2905,0,0,1-.6672.971,2.72867,2.72867,0,0,1-.6952.4289c-.1184.089-.1184.089-.1334.1942a3.57266,3.57266,0,0,1-3.6186.1864,6.28492,6.28492,0,0,1-2.6784-3.4304q-.0873-.49755-.1745-.9952C44.507,29.8493,44.6254,29.7603,44.6404,29.6551Z" transform="translate(-7.11297 -0.70802)" style="fill: #c1cc64"/>
    <path d="M19.0852,7.83127c.0884.12144.1767.24287.1617.34812-.0302.21052-.3555.26723-.5472.1296a.77292.77292,0,0,1-.2199-.6801.39046.39046,0,0,1,.1486-.29957c.1185-.08907.2068.03234.2952.15378.1034.01619.1918.13765.1616.34817h0a.1053.1053,0,0,1,.0884.12144.32733.32733,0,0,1-.0603.421.31458.31458,0,0,1-.4136-.06474c-.0884-.12144-.0733-.22671-.1767-.24289l.015-.10527h0c.2219-.07288.3404-.16193.5472-.12956l-.015.10526c.0452-.31577.0301-.21052.015-.10526h0l-.2068-.03238c-.1034-.01618-.1185.08908-.2219.0729l-.0301.21049a.1052.1052,0,0,0,.0883.12145c-.0883-.12144-.1616-.34813-.0431-.4372A.31457.31457,0,0,1,19.0852,7.83127Z" transform="translate(-7.11297 -0.70802)" style="fill: #738841"/>
    <path d="M18.8669,9.31478h0a1.3001,1.3001,0,0,0-.6352.00815l.015-.10523.6202.09708h0c-.2669.38853-.7537.09718-.5017-.18613.0451-.31567.4436-.14572.5017.18613l-.0301.21046c-.1485.29948-.4436.14572-.5168-.0809-.0883-.1214.0301-.21047.0452-.31569C18.307,8.7968,18.9121,8.99911,18.8669,9.31478Z" transform="translate(-7.11297 -0.70802)" style="fill: #738841"/>
    <path d="M17.9114,8.62566l.2069.03239h0c-.0151.10529-.1487.29968-.2522.28349s-.2953-.15385-.2802-.25915l.0603-.42117c.0151-.1053.1185-.08912.1336-.19442a.37688.37688,0,0,1,.3255-.05672c.1035.01619.1768.243.1617.34828Q18.1992,8.8322,17.9114,8.62566Z" transform="translate(-7.11297 -0.70802)" style="fill: #738841"/>
    <ellipse cx="14.5018" cy="4.61825" rx="1.05028" ry="1.06077" transform="translate(-7.74277 5.54272) rotate(-23.82223)" style="fill: #6c6c6c"/>
  </g>
</svg>
