<svg id="圖層_1" data-name="圖層 1" xmlns="http://www.w3.org/2000/svg" width="1564.22872" height="58.7" viewBox="0 0 1564.22872 58.7">
  <title>海浪</title>
  <g id="left">
    <rect y="34" width="782.29999" height="24.7" style="fill: #e2d9d3"/>
    <path d="M750.6,12.6c-8.3,6.2-16,12.1-32,12.1s-23.7-5.9-32-12.1C678.5,6.4,670.1,0,653.4,0s-25.1,6.4-33.3,12.6c-8.3,6.2-16,12.1-32,12.1s-23.7-5.9-32-12.1c-8-6.1-16.3-12.4-32.6-12.6h-.7c-16.7,0-25.1,6.4-33.3,12.6-8.3,6.2-16,12.1-32,12.1s-23.7-5.9-32-12.1C417.5,6.4,409.1,0,392.4,0s-25.1,6.4-33.3,12.6c-8.3,6.2-16,12.1-32,12.1s-23.7-5.9-32-12.1C287,6.4,278.6,0,261.9,0s-25.1,6.4-33.3,12.6c-8.3,6.2-16,12.1-32,12.1s-23.7-5.9-32-12.1C156.5,6.4,148.1,0,131.4,0S106.3,6.4,98.1,12.6c-8.3,6.2-16,12.1-32,12.1s-23.7-5.9-32-12.1C26,6.4,17.6,0,.9,0H0V34H.9C17.6,34,26,40.4,34.2,46.6s16,12.1,32,12.1c15.9,0,23.7-5.9,32-12.1,8.2-6.2,16.6-12.6,33.3-12.6s25.1,6.4,33.3,12.6,16,12.1,32,12.1,23.7-5.9,32-12.1C237,40.4,245.4,34,262.1,34s25.1,6.4,33.3,12.6,16,12.1,32,12.1c15.9,0,23.7-5.9,32-12.1C367.6,40.4,376,34,392.7,34s25.1,6.4,33.3,12.6,16,12.1,32,12.1c15.9,0,23.7-5.9,32-12.1,8.2-6.2,16.6-12.6,33.3-12.6h.7c16.2.2,24.5,6.5,32.6,12.6,8.2,6.2,16,12.1,32,12.1,15.9,0,23.7-5.9,32-12.1,8.2-6.2,16.6-12.6,33.3-12.6s25.1,6.4,33.3,12.6,16,12.1,32,12.1,23.7-5.9,32-12.1c7.9-6,16.1-12.2,31.7-12.6V0C766.7.4,758.5,6.6,750.6,12.6Z" style="fill: #d4cac0"/>
    <path d="M750.6,12.6c-8.3,6.2-16,12.1-32,12.1s-23.7-5.9-32-12.1C678.5,6.4,670.1,0,653.4,0s-25.1,6.4-33.3,12.6c-8.3,6.2-16,12.1-32,12.1s-23.7-5.9-32-12.1c-8-6.1-16.3-12.4-32.6-12.6h-.7c-16.7,0-25.1,6.4-33.3,12.6-8.3,6.2-16,12.1-32,12.1s-23.7-5.9-32-12.1C417.5,6.4,409.1,0,392.4,0s-25.1,6.4-33.3,12.6c-8.3,6.2-16,12.1-32,12.1s-23.7-5.9-32-12.1C287,6.4,278.6,0,261.9,0s-25.1,6.4-33.3,12.6c-8.3,6.2-16,12.1-32,12.1s-23.7-5.9-32-12.1C156.5,6.4,148.1,0,131.4,0S106.3,6.4,98.1,12.6c-8.3,6.2-16,12.1-32,12.1s-23.7-5.9-32-12.1C26,6.4,17.6,0,.9,0H0V17H.9C17.6,17,26,23.4,34.2,29.6s16,12.1,32,12.1c15.9,0,23.7-5.9,32-12.1,8.2-6.2,16.6-12.6,33.3-12.6s25.1,6.4,33.3,12.6,16,12.1,32,12.1,23.7-5.9,32-12.1C237,23.4,245.4,17,262.1,17s25.1,6.4,33.3,12.6,16,12.1,32,12.1c15.9,0,23.7-5.9,32-12.1C367.6,23.4,376,17,392.7,17s25.1,6.4,33.3,12.6,16,12.1,32,12.1c15.9,0,23.7-5.9,32-12.1,8.2-6.2,16.6-12.6,33.3-12.6h.7c16.2.2,24.5,6.5,32.6,12.6,8.2,6.2,16,12.1,32,12.1,15.9,0,23.7-5.9,32-12.1,8.2-6.2,16.6-12.6,33.3-12.6s25.1,6.4,33.3,12.6,16,12.1,32,12.1,23.7-5.9,32-12.1c7.9-6,16.1-12.2,31.7-12.6V0C766.7.4,758.5,6.6,750.6,12.6Z" style="fill: #fff"/>
  </g>
  <g id="right">
    <rect x="781.8" y="34" width="782.42848" height="24.7" style="fill: #e2d9d3"/>
    <path d="M1532.42333,12.6c-8.30141,6.2-16.00263,12.1-32.00526,12.1s-23.70384-5.9-31.90526-12.1S1451.91011,0,1435.20729,0s-25.1041,6.4-33.30552,12.6c-8.30141,6.2-16.00262,12.1-32.00525,12.1-15.90264,0-23.70385-5.9-31.90527-12.1C1329.89,6.5,1321.68853.2,1305.38592,0h-.70006c-16.7027,0-25.1041,6.4-33.30552,12.6-8.30141,6.2-16.00263,12.1-32.00526,12.1-15.90263,0-23.70384-5.9-31.90526-12.1S1190.86712,0,1174.1643,0s-25.1041,6.4-33.30552,12.6c-8.30141,6.2-16.00262,12.1-32.00525,12.1-15.90264,0-23.70385-5.9-31.90527-12.1S1060.34556,0,1043.64275,0s-25.1041,6.4-33.30546,12.6c-8.30135,6.2-16.00263,12.1-32.00526,12.1s-23.7039-5.9-32.00525-12.1C938.32571,6.4,929.82431,0,913.12156,0s-25.1041,6.4-33.30546,12.6c-8.30135,6.2-16.00263,12.1-32.00526,12.1s-23.7039-5.9-32.00525-12.1C807.80427,6.4,799.30288,0,782.60012,0h-.90017V34h.90017c16.70276,0,25.1041,6.4,33.30546,12.6s16.00263,12.1,32.00526,12.1c15.90263,0,23.7039-5.9,32.00525-12.1,8.10137-6.2,16.50277-12.6,33.20547-12.6s25.1041,6.4,33.30545,12.6,16.00263,12.1,32.00526,12.1,23.7039-5.9,32.00526-12.1c8.20135-6.2,16.60276-12.6,33.30545-12.6s25.1041,6.4,33.30552,12.6,16.00263,12.1,31.90526,12.1,23.70385-5.9,32.00526-12.1c8.2013-6.2,16.6027-12.6,33.30552-12.6s25.1041,6.4,33.30552,12.6,16.00262,12.1,31.90526,12.1,23.70384-5.9,32.00526-12.1c8.20129-6.2,16.6027-12.6,33.30551-12.6h.70007c16.20261.2,24.504,6.5,32.60533,12.6,8.2013,6.2,16.00263,12.1,31.90526,12.1s23.70385-5.9,32.00526-12.1c8.2013-6.2,16.6027-12.6,33.30552-12.6s25.1041,6.4,33.30552,12.6,16.00262,12.1,31.90526,12.1,23.70384-5.9,32.00526-12.1c7.90132-6,16.10262-12.2,31.70515-12.6V0C1548.526.4,1540.32453,6.6,1532.42333,12.6Z" style="fill: #d4cac0"/>
    <path d="M1532.42333,12.6c-8.30141,6.2-16.00263,12.1-32.00526,12.1s-23.70384-5.9-31.90526-12.1S1451.91011,0,1435.20729,0s-25.1041,6.4-33.30552,12.6c-8.30141,6.2-16.00262,12.1-32.00525,12.1-15.90264,0-23.70385-5.9-31.90527-12.1C1329.89,6.5,1321.68853.2,1305.38592,0h-.70006c-16.7027,0-25.1041,6.4-33.30552,12.6-8.30141,6.2-16.00263,12.1-32.00526,12.1-15.90263,0-23.70384-5.9-31.90526-12.1S1190.86712,0,1174.1643,0s-25.1041,6.4-33.30552,12.6c-8.30141,6.2-16.00262,12.1-32.00525,12.1-15.90264,0-23.70385-5.9-31.90527-12.1S1060.34556,0,1043.64275,0s-25.1041,6.4-33.30546,12.6c-8.30135,6.2-16.00263,12.1-32.00526,12.1s-23.7039-5.9-32.00525-12.1C938.32571,6.4,929.82431,0,913.12156,0s-25.1041,6.4-33.30546,12.6c-8.30135,6.2-16.00263,12.1-32.00526,12.1s-23.7039-5.9-32.00525-12.1C807.80427,6.4,799.30288,0,782.60012,0h-.90017V17h.90017c16.70276,0,25.1041,6.4,33.30546,12.6s16.00263,12.1,32.00526,12.1c15.90263,0,23.7039-5.9,32.00525-12.1,8.10137-6.2,16.50277-12.6,33.20547-12.6s25.1041,6.4,33.30545,12.6,16.00263,12.1,32.00526,12.1,23.7039-5.9,32.00526-12.1c8.20135-6.2,16.60276-12.6,33.30545-12.6s25.1041,6.4,33.30552,12.6,16.00263,12.1,31.90526,12.1,23.70385-5.9,32.00526-12.1c8.2013-6.2,16.6027-12.6,33.30552-12.6s25.1041,6.4,33.30552,12.6,16.00262,12.1,31.90526,12.1,23.70384-5.9,32.00526-12.1c8.20129-6.2,16.6027-12.6,33.30551-12.6h.70007c16.20261.2,24.504,6.5,32.60533,12.6,8.2013,6.2,16.00263,12.1,31.90526,12.1s23.70385-5.9,32.00526-12.1c8.2013-6.2,16.6027-12.6,33.30552-12.6s25.1041,6.4,33.30552,12.6,16.00262,12.1,31.90526,12.1,23.70384-5.9,32.00526-12.1c7.90132-6,16.10262-12.2,31.70515-12.6V0C1548.526.4,1540.32453,6.6,1532.42333,12.6Z" style="fill: #fff"/>
  </g>
  <polygon points="782.3 34 773.3 58.7 793.1 58.7 782.3 34" style="fill: #e2d9d3"/>
  <polygon points="782.3 17 777 30.5 782.3 34 787.1 26.5 782.3 17" style="fill: #d4cac0"/>
  <polygon points="782.3 0 776.4 8 782.3 17 787.1 10.3 782.3 0" style="fill: #fff"/>
</svg>
